PathFileType	4	(X/Y/Z)	D:\TRACE\v60_Jaco2_6-2-23\JustArmDRS_Motion3_3-platform.trc
DataRate	CameraRate	NumFrames	NumMarkers	Units	OrigDataRate	OrigDataStartFrame	OrigNumFrames
100.00	100.00	      71	5	mm	100.00	5251	      7000
Frame#	Time	Left_Front			Right_Front			Left_Aft			Right_Aft			Post			
		X1	Y1	Z1	X2	Y2	Z2	X3	Y3	Z3	X4	Y4	Z4	X5	Y5	Z5	

5251	52.500	-774.84924	-28.42295	-658.95575	795.87891	-29.83428	-636.30670	-706.25122	36.48927	473.33905	708.50293	39.03218	578.89819	21.53341	1249.36914	-1044.99011	
5252	52.510	-774.37567	-28.78245	-659.02594	796.24744	-29.94673	-636.33197	-705.91370	36.67002	473.40607	709.07288	39.21365	578.84332	21.93353	1249.11328	-1045.33838	
5253	52.520	-773.95465	-28.92787	-658.87531	796.64911	-30.13747	-636.36871	-705.48010	36.70592	473.47382	709.50586	39.31168	578.90076	22.05957	1248.60217	-1045.26428	
5254	52.530	-773.39404	-29.00368	-658.62775	797.01971	-30.23361	-636.39648	-705.15851	36.70437	473.45932	709.77930	39.36689	578.88116	22.79884	1248.44141	-1045.37476	
5255	52.540	-773.07898	-29.10044	-658.68958	797.45276	-30.36400	-636.41864	-704.79285	36.68762	473.42477	710.35754	39.51969	578.91687	23.56097	1248.42920	-1045.58984	
5256	52.550	-772.57990	-29.13198	-658.67126	797.87305	-30.36596	-636.42010	-704.35541	36.77090	473.39777	710.83508	39.63433	578.89612	24.04166	1248.22900	-1045.74927	
5257	52.560	-772.10028	-29.26109	-658.65222	798.28192	-30.37191	-636.47290	-703.83704	36.85616	473.36053	710.92206	39.65525	578.94537	24.38626	1248.17700	-1045.94177	
5258	52.570	-771.86090	-29.27415	-658.76154	798.54926	-30.46912	-636.51898	-703.38739	36.95703	473.30090	711.46649	39.56584	578.83856	24.67087	1248.10657	-1046.08984	
5259	52.580	-771.14313	-29.47651	-658.46997	799.07990	-30.57017	-636.47540	-702.96204	36.97798	473.21857	711.84485	39.54187	578.82349	24.86553	1248.05957	-1046.19019	
5260	52.590	-771.26898	-29.61976	-659.03894	799.40051	-30.63865	-636.49786	-702.71411	36.91799	473.08447	712.15228	39.60247	578.82928	25.22617	1248.00146	-1046.25818	
5261	52.600	-770.68921	-29.44504	-658.88684	799.73853	-30.64617	-636.54974	-702.36133	36.93882	473.13110	712.58966	39.63025	578.76050	25.30223	1247.88440	-1046.09937	
5262	52.610	-770.32068	-29.28959	-658.80634	800.14197	-30.63780	-636.55835	-701.88330	36.89737	473.20169	713.04364	39.63776	578.72827	25.93624	1248.02808	-1046.20129	
5263	52.620	-769.90546	-29.28926	-658.77557	800.47968	-30.56417	-636.51727	-701.58392	36.99613	473.16660	713.22980	39.61004	578.74121	26.39787	1248.38037	-1046.20630	
5264	52.630	-769.59729	-29.23696	-658.69025	800.81537	-30.51316	-636.53387	-701.11090	36.95907	473.22711	713.64484	39.59219	578.74658	26.79134	1248.38586	-1046.15698	
5265	52.640	-769.22144	-29.32905	-658.84784	801.18121	-30.48203	-636.51398	-700.68958	36.81538	473.21100	713.98175	39.51158	578.95129	27.32931	1248.45947	-1046.07715	
5266	52.650	-768.77283	-29.12999	-658.87799	801.64838	-30.40770	-636.47217	-700.31537	36.74121	473.22702	714.02771	39.44648	579.01831	27.77442	1248.49927	-1045.87170	
5267	52.660	-768.39825	-29.07162	-658.82764	802.08057	-30.37893	-636.40991	-699.94501	36.75679	473.32874	714.96075	39.47535	578.90424	28.04697	1248.53723	-1045.70264	
5268	52.670	-768.06738	-29.09020	-658.93958	802.53229	-30.32638	-636.37592	-699.56604	36.71962	473.49158	715.31262	39.43166	578.92474	28.35632	1248.58899	-1045.64111	
5269	52.680	-767.37994	-28.87863	-658.78528	802.96185	-30.16094	-636.36639	-699.30377	36.72186	473.46841	715.65027	39.48718	578.93335	28.61169	1248.65967	-1045.57861	
5270	52.690	-767.41644	-28.88404	-659.05225	803.31049	-30.00936	-636.31750	-698.91168	36.61832	473.51938	716.10059	39.41954	578.99847	28.93338	1248.74878	-1045.40967	
5271	52.700	-767.11011	-28.78802	-658.95563	803.64935	-29.91208	-636.35052	-698.49744	36.41417	473.52667	716.52417	39.28312	579.06537	29.26143	1248.75269	-1045.18286	
5272	52.710	-766.44452	-28.79420	-658.75824	804.02618	-29.79151	-636.35193	-698.23682	36.38615	473.55426	716.91113	39.18904	579.09039	29.87846	1248.88989	-1044.79700	
5273	52.720	-766.06976	-28.63192	-658.52081	804.22827	-29.72124	-636.34912	-697.96570	36.33844	473.59763	717.43964	39.27746	579.12378	30.29111	1249.25806	-1044.33508	
5274	52.730	-765.93878	-28.25291	-658.50879	804.50983	-29.59633	-636.38153	-697.61707	36.19670	473.63608	717.55011	38.97712	579.09985	30.48116	1249.64319	-1044.06702	
5275	52.740	-765.60706	-27.99288	-658.44690	804.87769	-29.36616	-636.27802	-697.33966	36.10479	473.73883	717.82758	38.80600	579.07703	30.77955	1249.99207	-1043.85840	
5276	52.750	-765.63281	-28.03083	-658.85547	805.23199	-29.17118	-636.28748	-696.88092	35.94855	473.78052	718.12836	38.61237	579.14783	30.93416	1250.25769	-1043.50208	
5277	52.760	-764.98102	-27.56881	-658.44135	805.55518	-28.95885	-636.23596	-696.44086	35.83255	473.82013	718.37195	38.36549	579.31354	31.45456	1250.63525	-1043.07007	
5278	52.770	-764.76770	-27.44214	-658.59241	805.88989	-28.81764	-636.20209	-696.18213	35.89326	473.84488	718.62097	38.28861	579.34406	31.97068	1250.86633	-1042.50916	
5279	52.780	-764.60065	-27.24099	-658.54669	806.19342	-28.54015	-636.19177	-695.92926	35.97615	473.88916	719.03925	38.20879	579.40338	32.11188	1251.13806	-1042.07520	
5280	52.790	-764.14862	-26.88109	-658.34253	806.50549	-28.45866	-636.18927	-695.48175	35.75558	473.97412	719.44189	38.11052	579.47034	32.23292	1251.54749	-1041.64075	
5281	52.800	-763.93964	-26.67843	-658.40442	806.91675	-28.28682	-636.10358	-695.26123	35.66191	473.93893	719.87476	37.89074	579.58514	32.45427	1251.80420	-1041.17639	
5282	52.810	-763.74561	-26.58673	-658.47589	807.16437	-28.16019	-636.07709	-695.04480	35.48926	473.95169	720.11163	37.77010	579.65179	32.93057	1252.11731	-1040.55945	
5283	52.820	-763.54944	-26.71161	-658.79889	807.37097	-27.97699	-636.03650	-694.67236	35.21872	473.96249	720.32501	37.64278	579.66040	33.23575	1252.35828	-1040.11951	
5284	52.830	-762.94006	-26.73748	-658.63446	807.78442	-27.63692	-635.97253	-694.31934	34.99850	474.08289	720.62762	37.50744	579.63409	33.42106	1252.51440	-1039.86890	
5285	52.840	-762.53345	-26.28472	-658.29730	808.05890	-27.44575	-635.87280	-694.02924	34.81710	474.18137	720.83160	37.37258	579.65179	33.46965	1252.59473	-1039.50952	
5286	52.850	-762.07770	-25.98740	-658.22144	808.26111	-27.22960	-635.71356	-693.86713	34.69303	474.24338	721.10052	37.09897	579.76141	33.75703	1253.06897	-1039.18762	
5287	52.860	-761.82611	-25.77197	-658.02753	808.48090	-26.94157	-635.70361	-693.80975	34.66491	474.30795	721.51343	36.69576	579.76196	34.43316	1253.91406	-1039.03894	
5288	52.870	-761.53607	-25.63973	-657.99786	808.81903	-26.60090	-635.68866	-693.33130	34.27528	474.29150	721.66791	36.58154	579.98492	34.55192	1254.26721	-1038.46997	
5289	52.880	-761.35974	-25.30432	-657.91248	809.09436	-26.22606	-635.69373	-692.96619	34.03398	474.43982	721.76105	36.34533	580.04419	34.77650	1254.62000	-1037.85815	
5290	52.890	-760.97363	-24.97318	-657.66644	809.23694	-25.96875	-635.64520	-692.66132	33.86688	474.54550	722.00226	36.09940	580.12720	34.89816	1255.13562	-1037.22693	
5291	52.900	-760.86707	-24.68094	-657.93585	809.44220	-25.74102	-635.54474	-692.48865	33.75925	474.56238	722.12854	35.89932	580.19641	35.01978	1255.54968	-1036.52844	
5292	52.910	-760.82104	-24.34543	-657.99371	809.58032	-25.55972	-635.54163	-692.37140	33.66334	474.55530	722.42987	35.68800	580.31348	35.61618	1255.82690	-1035.72339	
5293	52.920	-760.61829	-23.97931	-657.91675	809.70422	-25.22761	-635.16412	-692.13202	33.52038	474.63187	722.82281	35.47029	580.45947	35.81682	1256.20215	-1034.95642	
5294	52.930	-760.36530	-23.67092	-657.75555	809.91565	-24.99634	-635.07703	-691.93262	33.38483	474.71466	722.98401	35.30743	580.50104	35.77139	1256.82520	-1034.21094	
5295	52.940	-760.26544	-23.44761	-657.68665	810.09631	-24.63659	-635.01483	-691.71777	33.14839	474.81049	723.14441	35.15951	580.51843	35.95092	1257.16626	-1033.59119	
5296	52.950	-760.87427	-23.55452	-658.62817	810.34491	-24.41766	-634.95026	-691.56433	32.95678	474.89182	723.27539	34.99075	580.55768	36.41940	1257.38428	-1033.04309	
5297	52.960	-760.20935	-22.83875	-657.70105	810.50885	-24.18148	-634.86871	-691.46918	32.83260	474.95401	723.33527	34.84190	580.59155	36.64701	1257.82678	-1032.54871	
5298	52.970	-760.07617	-22.58432	-657.64294	810.70648	-23.87289	-634.84155	-691.33557	32.68387	475.08179	723.58069	34.63604	580.65997	36.86076	1258.34631	-1032.18677	
5299	52.980	-759.81226	-22.31057	-657.46381	811.14032	-23.74310	-635.09900	-691.11987	32.50377	475.27753	723.86591	34.32367	580.76770	36.79137	1258.82800	-1031.98779	
5300	52.990	-759.52081	-22.04306	-657.22278	811.22058	-23.50550	-635.04749	-690.95972	32.28802	475.30612	724.08728	34.10393	580.84882	36.91080	1259.14404	-1031.74854	
5301	53.000	-759.43274	-21.90601	-657.24078	811.21124	-23.08031	-634.66730	-690.82434	32.16207	475.31351	724.38934	33.91512	580.88318	36.93367	1259.64148	-1031.37781	
5302	53.010	-759.51782	-22.07649	-657.58661	811.32404	-22.81312	-634.63379	-690.65179	31.92808	475.34991	724.61432	33.78507	580.88055	36.98713	1260.06726	-1030.87634	
5303	53.020	-759.44952	-21.87169	-657.62610	811.45697	-22.51401	-634.60565	-690.52008	31.73933	475.36502	724.54370	33.55236	581.03876	37.33725	1260.46802	-1030.14087	
5304	53.030	-758.82550	-21.28164	-657.05804	811.55304	-22.25023	-634.54980	-690.38928	31.53398	475.44525	724.59857	33.34144	581.18292	37.39889	1260.90674	-1029.43811	
5305	53.040	-758.93890	-20.89404	-657.30560	811.70703	-21.94517	-634.47699	-690.23920	31.29458	475.58362	724.72723	33.12047	581.22491	37.30003	1261.26013	-1028.83032	
5306	53.050	-758.74182	-20.55985	-657.16547	811.76471	-21.69885	-634.43909	-690.13556	31.09645	475.68716	724.75714	32.90935	581.27692	37.49343	1261.53516	-1027.95142	
5307	53.060	-758.51880	-20.20957	-657.15723	811.85413	-21.46054	-634.38147	-689.95996	30.86972	475.84451	724.91437	32.72474	581.37994	37.95889	1261.81995	-1027.10754	
5308	53.070	-758.46167	-20.00274	-657.15649	811.97314	-21.24750	-634.32324	-689.80035	30.67418	475.87930	725.12268	32.52077	581.47534	37.99821	1262.53040	-1026.35608	
5309	53.080	-758.50177	-20.16251	-657.45404	812.03638	-21.03734	-634.25897	-689.71875	30.57764	475.92844	725.22961	32.29441	581.49963	37.85661	1263.09717	-1025.81702	
5310	53.090	-758.35150	-20.04410	-657.54425	812.10608	-20.78672	-634.20129	-689.74902	30.53216	475.95563	725.27789	31.89803	581.31104	37.79713	1263.41455	-1025.38562	
5311	53.100	-758.36469	-19.52279	-657.10803	812.12476	-20.50978	-634.21179	-689.69684	30.42955	476.02234	725.16986	31.52850	581.39441	37.88481	1263.61987	-1025.03589	
5312	53.110	-758.34741	-19.33340	-656.99329	812.07440	-20.22881	-634.16595	-689.65210	30.27695	476.10248	725.05164	31.24860	581.54846	37.99353	1263.93994	-1024.51086	
5313	53.120	-758.19757	-19.01774	-656.87610	812.23254	-19.86962	-634.05420	-689.56177	30.06770	476.13950	725.11572	31.12134	581.67053	38.16713	1264.44238	-1024.03442	
5314	53.130	-758.16888	-18.66854	-656.67554	812.22723	-19.68613	-634.07428	-689.51996	29.89308	476.18173	725.14301	31.01047	581.81567	38.21261	1264.86560	-1023.77026	
5315	53.140	-758.07019	-18.44754	-656.56946	812.31531	-19.43992	-633.94806	-689.40039	29.68746	476.25009	725.23480	30.80976	581.91852	38.17645	1265.31934	-1023.24170	
5316	53.150	-758.12408	-18.12486	-656.38098	812.59363	-19.42957	-634.32123	-689.37158	29.51552	476.32172	725.34607	30.66710	581.96429	37.98661	1265.57813	-1023.03534	
5317	53.160	-758.12579	-17.91005	-656.36530	812.47485	-19.08254	-633.91846	-689.38794	29.33148	476.39569	725.42700	30.54730	581.99225	38.04082	1265.88989	-1022.70221	
5318	53.170	-758.34552	-17.93462	-656.51349	812.44702	-18.84809	-633.86078	-689.42609	29.16059	476.51349	725.48273	30.47143	582.02283	38.14186	1266.23132	-1022.20502	
5319	53.180	-758.34613	-17.78810	-656.57349	812.39417	-18.67785	-633.81793	-689.44745	29.00977	476.59518	725.52533	30.46880	582.11774	38.05140	1266.67236	-1021.79578	
5320	53.190	-758.33557	-17.52558	-656.66486	812.34534	-18.39190	-633.72540	-689.46649	28.84743	476.65442	725.54993	30.38589	582.20203	38.30475	1266.95801	-1020.86652	
5321	53.200	-758.29810	-17.12840	-656.54114	812.37543	-18.14515	-633.71906	-689.49402	28.71945	476.72736	725.51422	30.25253	582.26868	38.40624	1267.19885	-1020.42700	
